<?xml version="1.0" encoding="UTF-8"?>
<svg id="Layer_7" data-name="Layer 7" xmlns="http://www.w3.org/2000/svg" viewBox="0 0 589.48 552.31">
  <defs>
    <style>
      .cls-1 {
        fill: #458fcd;
      }

      .cls-2 {
        fill: #2b66b1;
      }
    </style>
  </defs>
  <path class="cls-2" d="M193.8,12.18V215.84L28.33,410.28V63.94c0-28.59,23.17-51.76,51.76-51.76h113.71Z"/>
  <path class="cls-2" d="M481.46,547.65h-89.28l-112.37-219.17-.53-1.04,67.94-68.33,44.56-44.81,144.37,235.72c26.17,42.74-4.58,97.63-54.69,97.63Z"/>
  <path class="cls-1" d="M521.54,79.73l-174.32,179.38-67.94,68.33,.53,1.04-86.01,88.51v130.66H85.81c-31.74,0-57.48-25.73-57.48-57.48v-79.89L193.8,215.84,367.12,12.18h125.87c35.19,0,53.07,42.31,28.55,67.55Z"/>
</svg>